<?xml version="1.0" encoding="UTF-8" standalone="no"?>
<!DOCTYPE svg PUBLIC "-//W3C//DTD SVG 1.1//EN" "http://www.w3.org/Graphics/SVG/1.1/DTD/svg11.dtd">
<svg xmlns="http://www.w3.org/2000/svg" xmlns:xlink="http://www.w3.org/1999/xlink" version="1.1" width="841.89pt" height="595.276pt" viewBox="0 0 841.89 595.276">
<g enable-background="new">
<text fill="#231f20" xml:space="preserve" transform="matrix(1 0 -0 1 0 595.276)" font-size="28" font-family="TradeGothicNextLTPro" font-weight="bold"><tspan y="-156.4286" x="82.2047 102.9247 112.6687 132.8287 142.57271 159.90471 169.64871 187.40071 205.06871 216.48992 237.29392 257.22993 277.38993 296.9619 318.82994 328.5739 346.32594 363.99394 384.71394 395.57795 415.51396 433.18196 449.56196 459.30595 478.87794 499.00993 515.3899 533.0579 543.92196 563.2112 584.7152 601.2072 622.0112 647.5192 665.41128 682.7433 700.4113">DIGITIZE-ORGANIZED-RELIABLE-AUTOMATED</tspan></text>
<path transform="matrix(1,0,0,-1,713.2186,401.1717)" d="M 0 0 L -2.804 9.772 L -48.442 9.772 L -46.062 0 Z " fill="#231f20"/>
<path transform="matrix(1,0,0,-1,575.2907,381.628)" d="M 0 0 L 132.321 0 L 129.517 9.772 L 2.804 9.772 Z " fill="#231f20"/>
<path transform="matrix(1,0,0,-1,653.0185,342.5408)" d="M 0 0 L 43.378 0 L 40.575 9.772 L -2.323 9.772 Z " fill="#231f20"/>
<path transform="matrix(1,0,0,-1,648.3729,322.9971)" d="M 0 0 L 42.417 0 L 39.613 9.772 L -2.323 9.772 Z " fill="#231f20"/>
<path transform="matrix(1,0,0,-1,643.7272,303.4534)" d="M 0 0 L 41.455 0 L 38.652 9.772 L -2.323 9.772 Z " fill="#231f20"/>
<path transform="matrix(1,0,0,-1,603.3268,283.9098)" d="M 0 0 L 76.248 0 L 73.445 9.772 L 2.804 9.772 Z " fill="#231f20"/>
<path transform="matrix(1,0,0,-1,608.934,264.3661)" d="M 0 0 L 65.034 0 L 62.2 9.877 L 2.834 9.877 Z " fill="#231f20"/>
<path transform="matrix(1,0,0,-1,639.8716,293.6815)" d="M 0 0 L -39.348 0 L -42.152 -9.772 L -2.363 -9.772 Z " fill="#231f20"/>
<path transform="matrix(1,0,0,-1,635.1459,313.2252)" d="M 0 0 L -40.23 0 L -43.034 -9.772 L -2.363 -9.772 Z " fill="#231f20"/>
<path transform="matrix(1,0,0,-1,630.4201,332.7689)" d="M 0 0 L -41.111 0 L -43.915 -9.772 L -2.363 -9.772 Z " fill="#231f20"/>
<path transform="matrix(1,0,0,-1,616.5541,391.3999)" d="M 0 0 L -44.067 0 L -46.871 -9.772 L -2.318 -9.772 Z " fill="#231f20"/>
<clipPath id="cp0">
<path transform="matrix(1,0,0,-1,0,595.276)" d="M 0 0 L 841.89 0 L 841.89 595.276 L 0 595.276 Z "/>
</clipPath>
<g clip-path="url(#cp0)">
<path transform="matrix(1,0,0,-1,507.3597,303.4534)" d="M 0 0 L 45.95 0 C 45.888 3.438 45.568 6.69 45.016 9.772 L -7.218 9.772 C -3.768 8.006 -1.037 4.999 0 0 " fill="#231f20"/>
<path transform="matrix(1,0,0,-1,421.898,283.9098)" d="M 0 0 L 127.698 0 C 126.209 3.582 124.277 6.841 121.9 9.772 L 0 9.772 Z " fill="#231f20"/>
<path transform="matrix(1,0,0,-1,421.898,264.3661)" d="M 0 0 L 110.369 0 C 99.231 6.567 83.692 9.877 63.755 9.877 L 0 9.877 Z " fill="#231f20"/>
<path transform="matrix(1,0,0,-1,397.4548,342.5408)" d="M 0 0 C .06 1.692 .097 3.397 .097 5.124 C .097 6.653 .06 8.207 .002 9.772 L -45.02 9.772 C -44.977 8.251 -44.948 6.709 -44.948 5.124 C -44.948 3.374 -44.977 1.67 -45.027 0 Z " fill="#231f20"/>
<path transform="matrix(1,0,0,-1,351.815,322.9971)" d="M 0 0 L 44.897 0 C 44.519 3.241 44.012 6.509 43.351 9.772 L -1.503 9.772 C -.852 6.744 -.358 3.474 0 0 " fill="#231f20"/>
<path transform="matrix(1,0,0,-1,347.3593,303.4534)" d="M 0 0 L 45.342 0 C 44.336 3.313 43.165 6.584 41.794 9.772 L -6.034 9.772 C -3.606 7.151 -1.605 3.878 0 0 " fill="#231f20"/>
<path transform="matrix(1,0,0,-1,261.7169,283.9098)" d="M 0 0 L 122.445 0 C 120.374 3.436 118.043 6.72 115.39 9.772 L 7.055 9.772 C 4.402 6.72 2.071 3.436 0 0 " fill="#231f20"/>
<path transform="matrix(1,0,0,-1,279.4525,264.3661)" d="M 0 0 L 86.974 0 C 76.133 7.796 61.916 12.649 43.487 12.649 C 25.058 12.649 10.841 7.796 0 0 " fill="#231f20"/>
<path transform="matrix(1,0,0,-1,304.5532,293.6815)" d="M 0 0 L -47.828 0 C -49.199 -3.188 -50.37 -6.459 -51.376 -9.772 L -6.034 -9.772 C -4.429 -5.894 -2.428 -2.62 0 0 " fill="#231f20"/>
<path transform="matrix(1,0,0,-1,295.567,313.2252)" d="M 0 0 L -44.854 0 C -45.515 -3.263 -46.022 -6.531 -46.4 -9.772 L -1.503 -9.772 C -1.145 -6.298 -.652 -3.028 0 0 " fill="#231f20"/>
<path transform="matrix(1,0,0,-1,293.4435,332.7689)" d="M 0 0 L -45.021 0 C -45.079 -1.565 -45.116 -3.119 -45.116 -4.648 C -45.116 -6.375 -45.079 -8.08 -45.02 -9.772 L .008 -9.772 C -.043 -8.102 -.072 -6.398 -.072 -4.648 C -.072 -3.062 -.043 -1.521 0 0 " fill="#231f20"/>
<path transform="matrix(1,0,0,-1,225.3584,342.5408)" d="M 0 0 C .154 2.652 .253 5.35 .253 8.127 C .253 8.686 .227 9.219 .22 9.772 L -44.843 9.772 C -44.811 8.778 -44.791 7.77 -44.791 6.741 C -44.791 4.42 -44.876 2.176 -45.031 0 Z " fill="#231f20"/>
<path transform="matrix(1,0,0,-1,179.5818,322.9971)" d="M 0 0 L 45.538 0 C 45.242 3.382 44.82 6.642 44.263 9.772 L -2.574 9.772 C -1.444 6.82 -.592 3.554 0 0 " fill="#231f20"/>
<path transform="matrix(1,0,0,-1,171.3208,303.4534)" d="M 0 0 L 50.239 0 C 49.227 3.434 48.046 6.703 46.664 9.772 L -18.117 9.772 C -10.42 8.489 -4.416 5.164 0 0 " fill="#231f20"/>
<path transform="matrix(1,0,0,-1,84.4724,283.9098)" d="M 0 0 L 128.077 0 C 125.649 3.581 122.911 6.851 119.829 9.772 L 0 9.772 Z " fill="#231f20"/>
<path transform="matrix(1,0,0,-1,84.4724,264.3661)" d="M 0 0 L 106.07 0 C 93.551 6.597 77.838 9.877 59.135 9.877 L 0 9.877 Z " fill="#231f20"/>
</g>
<path transform="matrix(1,0,0,-1,504.131,401.1717)" d="M 0 0 L 48.354 0 L 43.918 9.772 L -3.886 9.772 Z " fill="#231f20"/>
<clipPath id="cp1">
<path transform="matrix(1,0,0,-1,0,595.276)" d="M 0 0 L 841.89 0 L 841.89 595.276 L 0 595.276 Z "/>
</clipPath>
<g clip-path="url(#cp1)">
<path transform="matrix(1,0,0,-1,498.7179,322.9971)" d="M 0 0 L 51.464 0 C 52.592 3.048 53.448 6.296 53.969 9.772 L 8.5 9.772 C 7.196 4.747 3.929 1.764 0 0 " fill="#231f20"/>
<path transform="matrix(1,0,0,-1,545.1207,332.7689)" d="M 0 0 L -123.223 0 L -123.223 -9.772 L -9.228 -9.772 C -5.675 -6.967 -2.565 -3.714 0 0 " fill="#231f20"/>
</g>
<path transform="matrix(1,0,0,-1,0,595.276)" d="M 466.942 282.051 L 421.89799 282.051 L 421.89799 272.279 L 466.942 272.279 Z " fill="#231f20"/>
<path transform="matrix(1,0,0,-1,0,595.276)" d="M 466.942 301.594 L 421.89799 301.594 L 421.89799 291.822 L 466.942 291.822 Z " fill="#231f20"/>
<path transform="matrix(1,0,0,-1,0,595.276)" d="M 421.898 194.104 L 466.94203 194.104 L 466.94203 203.876 L 421.898 203.876 Z " fill="#231f20"/>
<path transform="matrix(1,0,0,-1,539.1769,371.8562)" d="M 0 0 L -46.704 0 L -42.818 -9.772 L 4.436 -9.772 Z " fill="#231f20"/>
<path transform="matrix(1,0,0,-1,0,595.276)" d="M 466.942 223.42 L 421.89799 223.42 L 421.89799 213.648 L 466.942 213.648 Z " fill="#231f20"/>
<path transform="matrix(1,0,0,-1,421.898,362.0843)" d="M 0 0 L 45.044 0 L 45.101 5.098 L 64.66 5.098 L 66.689 0 L 112.843 0 L 108.407 9.772 L 0 9.772 Z " fill="#231f20"/>
<clipPath id="cp2">
<path transform="matrix(1,0,0,-1,0,595.276)" d="M 0 0 L 841.89 0 L 841.89 595.276 L 0 595.276 Z "/>
</clipPath>
<g clip-path="url(#cp2)">
<path transform="matrix(1,0,0,-1,298.8555,371.8562)" d="M 0 0 L -45.824 0 C -44.804 -3.395 -43.608 -6.65 -42.256 -9.772 L 6.794 -9.772 C 4.029 -7.242 1.778 -3.972 0 0 " fill="#231f20"/>
<path transform="matrix(1,0,0,-1,294.0963,352.3125)" d="M 0 0 L -44.965 0 C -44.598 -3.347 -44.089 -6.6 -43.468 -9.772 L 1.599 -9.772 C .915 -6.745 .373 -3.503 0 0 " fill="#231f20"/>
</g>
<path transform="matrix(1,0,0,-1,0,595.276)" d="M 129.517 223.42 L 84.473 223.42 L 84.473 213.648 L 129.517 213.648 Z " fill="#231f20"/>
<path transform="matrix(1,0,0,-1,0,595.276)" d="M 129.517 242.964 L 84.473 242.964 L 84.473 233.192 L 129.517 233.192 Z " fill="#231f20"/>
<path transform="matrix(1,0,0,-1,0,595.276)" d="M 129.517 262.507 L 84.473 262.507 L 84.473 252.73499 L 129.517 252.73499 Z " fill="#231f20"/>
<path transform="matrix(1,0,0,-1,0,595.276)" d="M 129.517 282.051 L 84.473 282.051 L 84.473 272.279 L 129.517 272.279 Z " fill="#231f20"/>
<path transform="matrix(1,0,0,-1,0,595.276)" d="M 129.517 301.594 L 84.473 301.594 L 84.473 291.822 L 129.517 291.822 Z " fill="#231f20"/>
<clipPath id="cp3">
<path transform="matrix(1,0,0,-1,0,595.276)" d="M 0 0 L 841.89 0 L 841.89 595.276 L 0 595.276 Z "/>
</clipPath>
<g clip-path="url(#cp3)">
<path transform="matrix(1,0,0,-1,84.4724,401.1717)" d="M 0 0 L 115.829 0 C 119.136 2.936 122.139 6.193 124.822 9.772 L 0 9.772 Z " fill="#231f20"/>
<path transform="matrix(1,0,0,-1,215.4219,381.628)" d="M 0 0 C 1.605 3.087 3.037 6.338 4.269 9.772 L -45.805 9.772 C -51.135 4.067 -58.507 .667 -68.067 0 Z " fill="#231f20"/>
<path transform="matrix(1,0,0,-1,178.9955,352.3125)" d="M 0 0 C -.748 -3.541 -1.774 -6.803 -3.076 -9.772 L 43.57 -9.772 C 44.315 -6.628 44.941 -3.38 45.411 0 Z " fill="#231f20"/>
<path transform="matrix(1,0,0,-1,268.9546,401.1717)" d="M 0 0 L 107.97 0 C 110.658 2.999 113.095 6.256 115.257 9.772 L -7.288 9.772 C -5.126 6.256 -2.688 2.999 0 0 " fill="#231f20"/>
<path transform="matrix(1,0,0,-1,389.2791,381.628)" d="M 0 0 C 1.352 3.122 2.548 6.377 3.568 9.772 L -42.256 9.772 C -44.034 5.8 -46.285 2.529 -49.049 0 Z " fill="#231f20"/>
<path transform="matrix(1,0,0,-1,351.7826,352.3125)" d="M 0 0 C -.373 -3.503 -.915 -6.745 -1.599 -9.772 L 43.468 -9.772 C 44.089 -6.6 44.598 -3.347 44.965 0 Z " fill="#231f20"/>
</g>
<path transform="matrix(1,0,0,-1,625.6892,352.3125)" d="M 0 0 L -41.988 0 L -44.791 -9.772 L -2.479 -9.772 Z " fill="#231f20"/>
<path transform="matrix(1,0,0,-1,657.3329,362.0843)" d="M 0 0 L 44.671 0 L 41.868 9.772 L -2.237 9.772 Z " fill="#231f20"/>
</g>
</svg>
