<svg xmlns="http://www.w3.org/2000/svg" width="700" height="200" viewBox="0 0 700 200"><g fill="#0071BC"><path d="M437.635 52.032v-41.61h35.661c30.363 0 52.481 17.457 59.54 41.61h6.7c-7.242-27.675-32.345-47.308-66.24-47.308h-41.911v47.308h6.25zM532.93 86.09c-6.946 24.237-29.098 41.61-59.449 41.61h-35.845v-41.61h-6.25v47.308h41.911c33.895 0 58.998-19.633 66.24-47.308h-6.607z"/></g><path fill="#0071BC" d="M635.846 2.518c-32.576 0-55.634 21.84-62.328 49.514h6.551c6.47-24.86 27.284-43.816 55.593-43.816 34.19 0 57.903 28.308 57.903 60.845v.367c0 32.536-23.345 60.477-57.535 60.477-28.182 0-49.186-19.031-55.844-43.816h-6.681c6.652 27.674 29.581 49.514 62.157 49.514 38.97 0 64.338-31.249 64.338-66.359v-.367c0-35.109-25.183-66.359-64.154-66.359zM0 4.724h6.25v86.028l86.212-86.028h8.64l-56.065 55.33 58.271 73.345h-8.088l-54.595-69.117-34.375 34.007v35.11h-6.25v-128.675zM131.619 4.724h6.25v128.675h-6.25v-128.675zM209.037 10.422h-45.771v-5.698h97.976v5.698h-45.955v122.976h-6.25v-122.976z"/><path fill="#F94A15" d="M649.428 84.594l-12.408-12.408h12.408v-6.25h-252.64c-1.363-33.894-26.21-63.418-64.088-63.418-38.97 0-64.337 31.25-64.337 66.359v.367c0 35.11 25.183 66.359 64.154 66.359 37.878 0 62.898-29.523 64.271-63.418h227.732l-12.408 12.408 4.419 4.419 14.239-14.239 14.239 14.239 4.419-4.418zm-259.008-15.165c0 32.536-23.345 60.477-57.536 60.477-34.374 0-58.087-28.308-58.087-60.844v-.368c0-32.536 23.346-60.477 57.72-60.477 34.19 0 57.903 28.308 57.903 60.845v.367z"/><g fill="#F94A15"><path d="M122.957 179.397h5.433v7.953l6.777-7.953h6.413l-7.421 8.401 7.673 11.202h-6.497l-4.957-7.281-1.988 2.185v5.096h-5.433v-19.603zM147.206 179.397h15.766v4.593h-10.389v2.997h9.409v4.284h-9.409v3.108h10.53v4.621h-15.906v-19.603zM175.619 191.663l-7.477-12.265h6.189l4.033 7.141 4.061-7.141h6.077l-7.449 12.182v7.42h-5.433v-7.337zM210.007 184.158h-5.853v-4.761h17.166v4.761h-5.881v14.842h-5.433v-14.842zM226.187 189.255v-.056c0-5.629 4.537-10.194 10.586-10.194 6.048 0 10.529 4.509 10.529 10.138v.055c0 5.629-4.537 10.194-10.586 10.194-6.048 0-10.529-4.509-10.529-10.137zm15.542 0v-.056c0-2.856-2.017-5.293-5.013-5.293s-4.984 2.408-4.984 5.238v.055c0 2.828 2.044 5.293 5.041 5.293 2.968 0 4.956-2.409 4.956-5.237zM265.141 179.397h7.589c6.973 0 11.033 4.032 11.033 9.689v.056c0 5.656-4.117 9.857-11.145 9.857h-7.477v-19.602zm5.432 4.789v9.997h2.212c3.276 0 5.433-1.792 5.433-4.956v-.056c0-3.136-2.156-4.984-5.433-4.984h-2.212zM290.437 179.397h5.433v19.603h-5.433v-19.603zM302.472 189.255v-.056c0-5.713 4.481-10.194 10.529-10.194 3.445 0 5.881 1.037 7.953 2.829l-3.192 3.864c-1.4-1.176-2.773-1.848-4.733-1.848-2.829 0-5.013 2.352-5.013 5.349v.056c0 3.192 2.212 5.46 5.321 5.46 1.344 0 2.352-.28 3.136-.812v-2.38h-3.836v-3.977h8.989v8.793c-2.072 1.737-4.928 3.053-8.513 3.053-6.104 0-10.641-4.2-10.641-10.137zM328.827 179.397h5.433v19.603h-5.433v-19.603zM345.892 184.158h-5.853v-4.761h17.166v4.761h-5.881v14.842h-5.432v-14.842zM367.494 179.257h5.237l8.345 19.743h-5.825l-1.4-3.528h-7.59l-1.4 3.528h-5.685l8.318-19.743zm4.761 11.986l-2.185-5.545-2.212 5.545h4.397zM386.611 179.397h5.433v14.842h9.494v4.761h-14.927v-19.603zM418.285 189.255v-.056c0-5.629 4.537-10.194 10.585-10.194 6.049 0 10.53 4.509 10.53 10.138v.055c0 5.629-4.537 10.194-10.585 10.194-6.05 0-10.53-4.509-10.53-10.137zm15.542 0v-.056c0-2.856-2.016-5.293-5.013-5.293s-4.985 2.408-4.985 5.238v.055c0 2.828 2.044 5.293 5.041 5.293 2.968 0 4.957-2.409 4.957-5.237zM445.945 179.397h10.054c2.465 0 4.201.616 5.349 1.737.784.812 1.26 1.848 1.26 3.192v.055c0 2.268-1.288 3.613-3.025 4.369 2.38.784 3.893 2.128 3.893 4.789v.055c0 3.361-2.744 5.405-7.421 5.405h-10.11v-19.602zm11.314 6.049c0-1.091-.868-1.68-2.465-1.68h-3.556v3.445h3.417c1.652 0 2.604-.561 2.604-1.709v-.056zm-1.876 5.573h-4.144v3.613h4.201c1.68 0 2.604-.644 2.604-1.792v-.056c-.001-1.065-.841-1.765-2.661-1.765zM468.307 196.032l3.501-3.304c.952 1.148 1.848 1.82 3.08 1.82 1.344 0 2.212-.924 2.212-2.744v-12.406h5.405v12.434c0 2.464-.616 4.201-1.932 5.517-1.288 1.288-3.136 1.988-5.377 1.988-3.416-.001-5.489-1.429-6.889-3.305zM489.811 179.397h15.767v4.593h-10.39v2.997h9.41v4.284h-9.41v3.108h10.53v4.621h-15.906v-19.603zM511.525 189.255v-.056c0-5.713 4.368-10.194 10.306-10.194 4.004 0 6.581 1.68 8.317 4.061l-4.089 3.165c-1.12-1.373-2.409-2.297-4.284-2.297-2.744 0-4.677 2.352-4.677 5.209v.055c0 2.94 1.932 5.237 4.677 5.237 2.044 0 3.249-.952 4.425-2.38l4.089 2.913c-1.849 2.548-4.341 4.425-8.654 4.425-5.601-.001-10.11-4.285-10.11-10.138zM541.291 184.158h-5.853v-4.761h17.167v4.761h-5.881v14.842h-5.433v-14.842zM557.132 196.087l3.025-3.612c1.96 1.54 4.088 2.352 6.356 2.352 1.485 0 2.268-.504 2.268-1.344v-.055c0-.84-.643-1.261-3.332-1.904-4.173-.952-7.393-2.129-7.393-6.133v-.056c0-3.64 2.885-6.272 7.59-6.272 3.332 0 5.937.896 8.065 2.604l-2.716 3.837c-1.792-1.288-3.753-1.932-5.489-1.932-1.316 0-1.961.533-1.961 1.261v.055c0 .897.673 1.288 3.417 1.904 4.48.98 7.281 2.437 7.281 6.105v.056c0 4.004-3.165 6.384-7.925 6.384-3.473-.001-6.75-1.093-9.186-3.25z"/></g></svg>