<?xml version="1.0" encoding="UTF-8"?>
<svg width="64px" height="72px" viewBox="0 0 64 72" version="1.1" xmlns="http://www.w3.org/2000/svg" xmlns:xlink="http://www.w3.org/1999/xlink">
    <!-- Generator: Sketch 56.3 (81716) - https://sketch.com -->
    <title>DEF Logo Picturae</title>
    <desc>Created with Sketch.</desc>
    <g id="DEF-Logo-Picturae" stroke="none" stroke-width="1" fill="none" fill-rule="evenodd">
        <g id="Group">
            <polygon id="Path-2" fill="#FFFFFF" fill-rule="nonzero" points="1.00073726 53.981908 32.5006846 72 63.999684 53.9808595 63.999684 17.9453045 32.5000527 -0.000444635399 1 17.9453045"/>
            <g id="Beeldmerk">
                <polygon id="Fill-1" fill="#EA3E1D" points="63.7200926 17.9676522 58.447762 20.9561739 53.1743736 23.9457391 53.1743736 17.9676522 53.1743736 11.9906087 58.447762 14.9791304"/>
                <polygon id="Fill-3" fill="#EF6F18" points="53.1746909 23.9452174 58.4459636 26.9337391 63.7204099 29.9222609 63.7204099 23.9452174 63.7204099 17.9671304 58.4459636 20.9556522"/>
                <polygon id="Fill-5" fill="#F38814" points="63.7200926 29.9222609 58.447762 32.9118261 53.1743736 35.9003478 53.1743736 29.9222609 53.1743736 23.9452174 58.447762 26.9337391"/>
                <polygon id="Fill-7" fill="#F7A10F" points="53.1746909 35.8999304 58.4459636 38.8884522 63.7204099 41.8769739 63.7204099 35.8999304 63.7204099 29.9218435 58.4459636 32.9114087"/>
                <polygon id="Fill-9" fill="#F9B900" points="63.7200926 41.8769739 58.447762 44.8654957 53.1743736 47.8540174 53.1743736 41.8769739 53.1743736 35.8999304 58.447762 38.8874087"/>
                <polygon id="Fill-11" fill="#FEC800" points="53.1746909 47.8540174 58.4459636 50.8435826 63.7204099 53.8321043 63.7204099 47.8540174 63.7204099 41.8769739 58.4459636 44.8654957"/>
                <polygon id="Fill-13" fill="#C8D50E" points="63.7200926 53.8315826 58.447762 56.8201043 53.1743736 59.8086261 53.1743736 53.8315826 53.1743736 47.8534957 58.447762 50.8430609"/>
                <polygon id="Fill-15" fill="#CC151D" points="53.1746909 11.990087 47.9013025 14.9786087 42.627914 17.9671304 42.627914 11.990087 42.627914 6.01304348 47.9013025 9.00156522"/>
                <polygon id="Fill-17" fill="#E82029" points="42.6281256 17.9676522 47.9004562 20.9561739 53.1749025 23.9457391 53.1749025 17.9676522 53.1749025 11.9906087 47.9004562 14.9791304"/>
                <polygon id="Fill-19" fill="#9BC412" points="42.6281256 53.8315826 47.9004562 56.8201043 53.1749025 59.8086261 53.1749025 53.8315826 53.1749025 47.8534957 47.9004562 50.8430609"/>
                <polygon id="Fill-21" fill="#7AB927" points="53.1746909 59.8091478 47.9013025 62.7976696 42.627914 65.7861913 42.627914 59.8091478 42.627914 53.8321043 47.9013025 56.8206261"/>
                <polygon id="Fill-23" fill="#A41517" points="42.6281256 6.01304348 37.3568529 9.00156522 32.0824066 11.9911304 32.0824066 6.01304348 32.0824066 0.0349565217 37.3568529 3.02347826"/>
                <polygon id="Fill-25" fill="#B8131A" points="32.082724 11.990087 37.3561124 14.9786087 42.628443 17.9671304 42.628443 11.990087 42.628443 6.01304348 37.3561124 9.00156522"/>
                <polygon id="Fill-27" fill="#EA3E1D" points="42.6281256 29.9222609 37.3568529 32.9118261 32.0824066 35.9003478 32.0824066 29.9222609 32.0824066 23.9452174 37.3568529 26.9337391"/>
                <polygon id="Fill-29" fill="#FEC800" points="32.082724 35.8999304 37.3561124 38.8884522 42.628443 41.8769739 42.628443 35.8999304 42.628443 29.9218435 37.3561124 32.9114087"/>
                <polygon id="Fill-31" fill="#9BC412" points="42.6281256 41.8769739 37.3568529 44.8654957 32.0824066 47.8540174 32.0824066 41.8769739 32.0824066 35.8999304 37.3568529 38.8874087"/>
                <polygon id="Fill-33" fill="#70AB20" points="32.082724 59.8091478 37.3561124 62.7976696 42.628443 65.7861913 42.628443 59.8091478 42.628443 53.8321043 37.3561124 56.8206261"/>
                <polygon id="Fill-35" fill="#009E49" points="42.6281256 65.7857739 37.3568529 68.7753391 32.0824066 71.7638609 32.0824066 65.7857739 32.0824066 59.8087304 37.3568529 62.7972522"/>
                <polygon id="Fill-37" fill="#5D0C3D" points="21.5362645 6.01304348 26.808595 9.00156522 32.0830413 11.9911304 32.0830413 6.01304348 32.0830413 0.0349565217 26.808595 3.02347826"/>
                <polygon id="Fill-39" fill="#7D1056" points="32.082724 11.990087 26.8093355 14.9786087 21.5359471 17.9671304 21.5359471 11.990087 21.5359471 6.01304348 26.8093355 9.00156522"/>
                <polygon id="Fill-41" fill="#B8131A" points="21.5362645 29.9222609 26.808595 32.9118261 32.0830413 35.9003478 32.0830413 29.9222609 32.0830413 23.9452174 26.808595 26.9337391"/>
                <polygon id="Fill-43" fill="#E61C86" points="32.082724 35.8999304 26.8093355 38.8884522 21.5359471 41.8769739 21.5359471 35.8999304 21.5359471 29.9218435 26.8093355 32.9114087"/>
                <polygon id="Fill-45" fill="#1397D3" points="21.5362645 41.8769739 26.808595 44.8654957 32.0830413 47.8540174 32.0830413 41.8769739 32.0830413 35.8999304 26.808595 38.8874087"/>
                <polygon id="Fill-47" fill="#007436" points="32.082724 59.8091478 26.8093355 62.7976696 21.5359471 65.7861913 21.5359471 59.8091478 21.5359471 53.8321043 26.8093355 56.8206261"/>
                <polygon id="Fill-49" fill="#00883C" points="21.5362645 65.7857739 26.808595 68.7753391 32.0830413 71.7638609 32.0830413 65.7857739 32.0830413 59.8087304 26.808595 62.7972522"/>
                <polygon id="Fill-51" fill="#A7086A" points="10.990757 11.990087 16.2630876 14.9786087 21.536476 17.9671304 21.536476 11.990087 21.536476 6.01304348 16.2630876 9.00156522"/>
                <polygon id="Fill-53" fill="#C8087F" points="21.5362645 17.9676522 16.2649917 20.9561739 10.9905455 23.9457391 10.9905455 17.9676522 10.9905455 11.9906087 16.2649917 14.9791304"/>
                <polygon id="Fill-55" fill="#DE0682" points="0.444297521 17.9676522 5.71768595 20.9561739 10.9910744 23.9457391 10.9910744 17.9676522 10.9910744 11.9906087 5.71768595 14.9791304"/>
                <polygon id="Fill-57" fill="#E82788" points="10.990757 23.9452174 5.7173686 26.9337391 0.445038017 29.9222609 0.445038017 23.9452174 0.445038017 17.9671304 5.7173686 20.9556522"/>
                <polygon id="Fill-59" fill="#1397D3" points="0.444297521 29.9222609 5.71768595 32.9118261 10.9910744 35.9003478 10.9910744 29.9222609 10.9910744 23.9452174 5.71768595 26.9337391"/>
                <polygon id="Fill-61" fill="#0088C7" points="10.990757 35.8999304 5.7173686 38.8884522 0.445038017 41.8769739 0.445038017 35.8999304 0.445038017 29.9218435 5.7173686 32.9114087"/>
                <polygon id="Fill-63" fill="#0070B6" points="0.444297521 41.8769739 5.71768595 44.8654957 10.9910744 47.8540174 10.9910744 41.8769739 10.9910744 35.8999304 5.71768595 38.8874087"/>
                <polygon id="Fill-65" fill="#0561AB" points="10.990757 47.8540174 5.7173686 50.8435826 0.445038017 53.8321043 0.445038017 47.8540174 0.445038017 41.8769739 5.7173686 44.8654957"/>
                <polygon id="Fill-67" fill="#1E57A3" points="0.444297521 53.8315826 5.71768595 56.8201043 10.9910744 59.8086261 10.9910744 53.8315826 10.9910744 47.8534957 5.71768595 50.8430609"/>
            </g>
        </g>
    </g>
</svg>